<svg width="356" height="255" viewBox="0 0 356 255" fill="none" xmlns="http://www.w3.org/2000/svg">
<path d="M225.217 157.977C368.073 241.926 321.644 273.207 136.108 244.717C87.6306 237.272 47 205.882 47 157.977C47 110.072 86.8952 71.2375 136.108 71.2375C185.322 71.2375 179.884 131.337 225.217 157.977Z" fill="#936639"/>
<path opacity="0.1" d="M237.989 239.76C269.157 239.76 294.424 237.775 294.424 235.325C294.424 232.876 269.157 230.891 237.989 230.891C206.82 230.891 181.553 232.876 181.553 235.325C181.553 237.775 206.82 239.76 237.989 239.76Z" fill="black"/>
<path opacity="0.1" d="M126.686 93.5819C143.206 93.5819 156.598 91.5964 156.598 89.1471C156.598 86.6978 143.206 84.7123 126.686 84.7123C110.166 84.7123 96.7737 86.6978 96.7737 89.1471C96.7737 91.5964 110.166 93.5819 126.686 93.5819Z" fill="black"/>
<path opacity="0.1" d="M125.118 100.064C112.284 100.062 99.7104 103.249 88.8506 109.256C77.9907 115.264 69.2875 123.847 63.7462 134.014C70.116 127.834 77.8912 122.896 86.5696 119.519C95.2479 116.143 104.636 114.403 114.128 114.412C151.693 114.412 182.147 141.159 182.147 174.152C182.163 183.077 179.891 191.892 175.5 199.941C186.871 188.961 193.162 174.646 193.137 159.804C193.137 126.811 162.683 100.064 125.118 100.064Z" fill="black"/>
<path opacity="0.3" d="M182.148 173.891C182.163 182.817 179.891 191.631 175.5 199.68C169.13 205.861 161.355 210.799 152.677 214.175C143.998 217.552 134.61 219.292 125.118 219.282C87.5531 219.282 57.0988 192.535 57.0988 159.543C57.0835 150.617 59.3555 141.803 63.7463 133.753C70.1161 127.573 77.8913 122.635 86.5697 119.258C95.248 115.882 104.636 114.142 114.128 114.151C151.693 114.151 182.148 140.898 182.148 173.891Z" fill="#656D4A"/>
<path d="M125.118 219.576C87.4281 219.576 56.7647 192.645 56.7647 159.543C56.7373 150.572 59.0211 141.712 63.4451 133.626C69.0137 123.409 77.7597 114.784 88.6728 108.747C99.586 102.71 112.221 99.5077 125.118 99.5099C162.809 99.5099 193.472 126.441 193.472 159.543C193.473 167.427 191.705 175.233 188.27 182.517C184.835 189.801 179.8 196.419 173.453 201.994C167.106 207.568 159.57 211.99 151.277 215.007C142.984 218.024 134.095 219.576 125.118 219.576ZM125.118 100.097C99.2204 100.097 75.2487 113.358 64.0479 133.88C59.6672 141.887 57.4059 150.66 57.4331 159.543C57.4331 192.321 87.7966 218.989 125.118 218.989C134.007 218.989 142.809 217.452 151.021 214.465C159.233 211.478 166.695 207.099 172.98 201.579C179.266 196.058 184.251 189.505 187.653 182.292C191.054 175.08 192.804 167.35 192.804 159.543C192.804 126.764 162.44 100.097 125.118 100.097V100.097Z" fill="white"/>
<path d="M280.735 220.334C275.794 226.009 276.359 233.678 276.359 233.678C276.359 233.678 284.934 232.146 289.874 226.472C294.814 220.797 294.249 213.129 294.249 213.129C294.249 213.129 285.675 214.66 280.735 220.334Z" fill="#D0CDE1"/>
<path d="M283.972 221.609C283.013 228.702 276.524 233.857 276.524 233.857C276.524 233.857 271.588 227.511 272.547 220.418C273.506 213.324 279.995 208.169 279.995 208.169C279.995 208.169 284.931 214.515 283.972 221.609Z" fill="#656D4A"/>
<path d="M104.761 55.445C120.262 55.445 132.828 44.4086 132.828 30.7945C132.828 17.1804 120.262 6.14404 104.761 6.14404C89.2601 6.14404 76.6941 17.1804 76.6941 30.7945C76.6941 44.4086 89.2601 55.445 104.761 55.445Z" fill="#FF6584"/>
<path d="M165.613 55.9272C165.627 80.5498 148.965 89.1531 128.407 89.1618C127.93 89.162 127.454 89.1576 126.981 89.1484C126.029 89.1308 125.086 89.093 124.153 89.0352C105.598 87.8894 91.1771 78.8579 91.1644 55.959C91.1513 32.2614 125.62 2.34082 128.205 0.128478C128.207 0.128478 128.207 0.128478 128.209 0.126467C128.308 0.0421507 128.358 0 128.358 0C128.358 0 165.599 31.3066 165.613 55.9272Z" fill="#656D4A"/>
<path d="M127.05 85.3961L140.655 68.6836L127.017 87.2302L126.981 89.1485C126.029 89.1308 125.086 89.0931 124.153 89.0353L125.606 64.402L125.594 64.2114L125.62 64.1753L125.758 61.8476L112.064 43.2666L125.798 60.1039L125.832 60.5975L126.93 41.9861L115.206 22.7842L127.072 38.7153L128.205 0.128536L128.209 0.00012207L128.209 0.126525L128.034 30.5562L139.686 18.4877L127.985 33.1768L127.686 49.8415L138.568 33.8445L127.644 52.2915L127.478 61.5579L143.271 39.2903L127.418 64.7905L127.05 85.3961Z" fill="#3F3D56"/>
<path d="M238.49 70.0346C234.922 64.7402 227.864 64.4935 227.864 64.4935C227.864 64.4935 220.986 63.721 216.574 71.7844C212.462 79.3001 206.786 86.5567 215.66 88.3161L217.263 83.9343L218.256 88.6423C219.52 88.7221 220.787 88.7411 222.053 88.6993C231.557 88.4298 240.608 88.7781 240.316 85.7829C239.929 81.8013 241.923 75.1288 238.49 70.0346Z" fill="#2F2E41"/>
<path d="M222.751 119.714L223.668 127.774L244.928 125.759L245.387 119.714H222.751Z" fill="#A0616A"/>
<path d="M220.456 124.147L219.845 128.849C219.845 128.849 212.809 137.446 213.421 152.223C214.033 166.999 203.785 232.688 211.126 233.225C218.468 233.762 231.622 234.568 232.234 232.553C232.845 230.538 234.069 154.103 234.069 154.103C234.069 154.103 237.281 232.649 242.787 232.917C248.293 233.186 266.801 233.723 266.801 231.708C266.801 229.693 250.588 139.73 250.588 139.73L247.988 132.207L245.387 122.938C245.387 122.938 229.175 125.356 224.739 124.416C220.304 123.476 220.456 124.147 220.456 124.147Z" fill="#656D4A"/>
<path d="M227.798 86.9373C233.204 86.9373 237.587 83.0882 237.587 78.34C237.587 73.5919 233.204 69.7428 227.798 69.7428C222.392 69.7428 218.009 73.5919 218.009 78.34C218.009 83.0882 222.392 86.9373 227.798 86.9373Z" fill="#A0616A"/>
<path d="M244.928 92.5793L243.07 94.9543L241.88 96.4736L239.881 99.0272L229.939 99.6989C229.939 99.6989 227.524 99.0138 224.737 98.013C223.708 97.6423 222.627 97.2285 221.599 96.7893C217.611 95.0886 214.412 93.0132 218.009 91.639C218.648 91.398 219.261 91.1086 219.843 90.7739C220.372 90.4702 220.864 90.12 221.313 89.7288C222.234 88.9177 222.917 87.9215 223.3 86.8264C223.684 85.7313 223.758 84.5705 223.515 83.4447L233.151 82.2357C232.871 84.3823 235.302 86.7237 238.026 88.6353C238.92 89.2653 239.849 89.847 240.722 90.3601C243.012 91.7061 244.928 92.5793 244.928 92.5793Z" fill="#A0616A"/>
<path d="M231.775 95.1315C231.775 95.1315 222.368 93.7211 220.227 90.7657C220.227 90.7657 210.973 91.7732 211.738 96.0719C212.503 100.37 220.15 123.879 220.15 123.879C220.15 123.879 239.269 120.655 246.305 123.073L250.587 93.1166C250.587 93.1166 249.058 90.1613 246.152 90.9672C243.246 91.7732 242.099 91.0344 242.099 91.0344C242.099 91.0344 238.81 95.1315 231.775 95.1315Z" fill="#D0CDE1"/>
<path d="M240.34 142.282C240.34 142.282 246.917 148.73 243.246 149.805C239.575 150.879 235.14 145.506 235.14 145.506L240.34 142.282Z" fill="#A0616A"/>
<path d="M242.481 142.819C242.481 142.819 237.128 146.043 239.116 148.193C241.105 150.342 247.988 146.312 247.988 145.506C247.988 144.7 242.481 142.819 242.481 142.819Z" fill="#A0616A"/>
<path d="M229.327 125.356L224.892 126.028L221.986 107.087C222.153 103.651 222.024 100.208 221.599 96.7893C221.275 94.5056 220.733 92.3106 219.843 90.7739C220.372 90.4702 220.864 90.12 221.313 89.7288C222.377 91.2104 224.32 94.3484 224.737 98.013C224.846 98.9307 224.847 99.8558 224.739 100.774C223.974 107.087 224.127 108.296 224.127 108.296L229.327 125.356Z" fill="#656D4A"/>
<path d="M219.08 91.9076C219.08 91.9076 211.891 90.1613 211.279 93.9226C210.668 97.6839 211.432 107.356 213.115 110.983C214.797 114.61 220.609 126.431 220.609 126.431C220.609 126.431 231.163 138.252 231.622 141.073C232.081 143.894 234.375 146.849 234.375 146.849L241.716 142.685L227.339 121.326L221.068 106.55C221.068 106.55 223.668 93.1166 219.08 91.9076Z" fill="#D0CDE1"/>
<path d="M247.223 92.4449L250.588 93.1166C250.588 93.1166 253.647 104.669 252.423 110.848C251.199 117.028 251.046 119.177 251.046 119.177L249.976 136.775C249.976 136.775 250.282 148.058 248.14 146.312C245.999 144.566 241.716 143.76 241.716 143.76C241.716 143.76 242.175 138.789 243.858 137.581C243.858 137.581 245.846 128.312 244.623 124.282C243.399 120.252 247.223 92.4449 247.223 92.4449Z" fill="#D0CDE1"/>
<path d="M248.446 105.475L244.546 125.289L242.175 124.416L246.305 105.475L241.88 96.4735L238.026 88.6353C238.921 89.2653 239.849 89.8469 240.722 90.3601L243.07 94.9542L248.446 105.475Z" fill="#656D4A"/>
<path d="M236.912 69.5242L229.939 66.3162L220.31 67.6285L218.317 75.3569L223.277 75.1893L224.662 72.35V75.1426L226.951 75.0651L228.279 70.5448L229.109 75.3569L237.245 75.211L236.912 69.5242Z" fill="#2F2E41"/>
<path d="M223.137 235.325C225.762 235.325 227.89 234.624 227.89 233.76C227.89 232.896 225.762 232.195 223.137 232.195C220.513 232.195 218.385 232.896 218.385 233.76C218.385 234.624 220.513 235.325 223.137 235.325Z" fill="#2F2E41"/>
<path d="M255.216 235.325C257.841 235.325 259.969 234.624 259.969 233.76C259.969 232.896 257.841 232.195 255.216 232.195C252.591 232.195 250.464 232.896 250.464 233.76C250.464 234.624 252.591 235.325 255.216 235.325Z" fill="#2F2E41"/>
<path d="M135.081 190.441C130.219 193.219 124.617 194.837 118.827 195.133C113.037 195.429 107.259 194.394 102.063 192.13L102.799 190.812C109.061 193.514 116.16 194.34 123.007 193.162C129.855 191.984 136.074 188.867 140.713 184.29C145.352 179.712 148.156 173.925 148.694 167.815C149.232 161.705 147.476 155.609 143.694 150.459C139.912 145.308 134.313 141.389 127.753 139.299C121.194 137.21 114.035 137.066 107.374 138.89C100.712 140.714 94.9147 144.404 90.8685 149.397C86.8223 154.39 84.7504 160.409 84.9701 166.535L83.2997 166.58C83.1147 161.426 84.4709 156.319 87.2332 151.77C89.9956 147.22 94.0675 143.385 99.0431 140.648C104.019 137.911 109.724 136.367 115.591 136.17C121.458 135.973 127.281 137.13 132.48 139.526C137.678 141.922 142.072 145.473 145.221 149.824C148.37 154.176 150.166 159.176 150.429 164.328C150.693 169.479 149.414 174.601 146.721 179.182C144.028 183.764 140.014 187.646 135.081 190.441Z" fill="white"/>
<path d="M119.965 163.9C115.023 164.861 108.447 165.446 103.655 164.835L109.67 168.858L92.8298 178.398L93.7356 179.631L110.576 170.092L112.269 176.565C113.611 172.479 116.931 167.459 119.965 163.9Z" fill="white"/>
</svg>
