<svg width="545" height="480" viewBox="0 0 545 480" fill="none" xmlns="http://www.w3.org/2000/svg">
<g clip-path="url(#clip0_112_76)">
<path d="M166.916 480C151.622 480 136.351 479.482 121.102 478.447C99.3144 476.968 76.7845 475.439 55.8438 453.483C41.1948 438.125 28.2209 413.484 18.325 382.223C11.7108 361.035 6.86091 338.049 3.94579 314.071C-1.49203 270.417 -1.30681 224.932 4.48587 181.441C6.51585 166.53 9.31431 152.031 12.8411 138.152C28.1123 78.3691 55.9659 38.2385 89.2601 28.0509C89.5351 27.9834 89.8131 27.9722 90.0893 28.0174C90.2391 28.0326 90.3883 28.0488 90.5405 28.0367L90.7364 27.919C91.2385 27.5891 91.7544 27.3388 92.2785 27.1709C143.627 12.7197 197.91 41.9595 249.254 111.727C288.954 165.678 341.567 194.73 410.101 200.543L411.074 200.639C430.152 202.711 448.606 217.58 464.444 243.642C480.076 269.364 491.813 303.682 498.386 342.888C499.194 347.668 499.935 352.644 500.588 357.676C501.195 362.353 501.152 367.247 500.463 371.883C499.774 376.519 498.461 380.739 496.653 384.132V384.141L496.483 384.473C496.072 385.245 495.64 385.986 495.198 386.676L494.678 387.486C490.298 394.306 486.839 399.694 482.699 403.878C479.938 406.65 477.001 408.746 473.96 410.116C457.259 417.813 440.299 424.949 423.551 431.328C391.025 443.726 357.643 453.953 324.331 461.725C272.106 473.898 219.536 480.002 166.916 480ZM89.7 30.1348C89.5977 30.1329 89.4955 30.1461 89.3942 30.174C56.4113 40.2664 28.8214 80.003 13.7016 139.194C10.2096 152.935 7.43883 167.291 5.42904 182.054C-0.310858 225.16 -0.493772 270.24 4.89568 313.507C7.78226 337.255 12.5851 360.022 19.1355 381.007C28.9346 411.962 41.7758 436.355 56.2711 451.551C77.0238 473.311 99.4476 474.833 121.133 476.304C188.958 480.886 256.868 475.298 324.226 459.594C357.516 451.827 390.877 441.607 423.381 429.217C440.118 422.843 457.066 415.712 473.756 408.019C476.724 406.684 479.59 404.639 482.284 401.934C486.341 397.834 489.767 392.498 494.105 385.742L494.625 384.934C495.005 384.34 495.378 383.706 495.735 383.047L495.837 382.844C499.402 376.052 500.788 367.091 499.64 358.259V358.258C498.994 353.279 498.261 348.357 497.461 343.626C484.034 263.536 449.299 206.935 411.027 202.78L410.059 202.684C378.754 200.028 351.359 192.672 326.314 180.193C296.415 165.296 270.314 142.872 248.733 113.545C197.584 44.0444 143.528 14.9134 92.4039 29.2961C91.9264 29.4518 91.4565 29.6821 90.9991 29.9846L90.646 30.1714C90.4454 30.1883 90.2444 30.1838 90.0441 30.1578C89.9261 30.1463 89.8117 30.1348 89.6999 30.1348H89.7Z" fill="#FFFFFF"/>
<path d="M299.671 156.488C296.992 153.92 294.25 139.601 290.829 138.147C293.387 143.792 291.53 145.287 291.516 151.482C291.548 155 291.137 158.507 290.292 161.923H232.333V116.749C232.333 112.69 233.133 108.671 234.688 104.921C236.243 101.171 238.523 97.7637 241.397 94.8936C244.271 92.0235 247.683 89.7468 251.438 88.1935C255.193 86.6403 259.217 85.8409 263.281 85.8411C264.833 85.8713 266.374 86.0966 267.869 86.5118C272.85 87.855 277.391 90.4829 281.035 94.1319C284.678 97.7809 287.297 102.323 288.629 107.302C293.047 123.43 300.074 150.278 299.671 156.488Z" fill="#2F2E41"/>
<path d="M235.734 212.06L235.762 176.85L215.038 178.7L222.352 200.907L218.929 256.724C217.268 257.096 215.752 257.943 214.566 259.16C213.379 260.378 212.572 261.914 212.245 263.582C211.917 265.249 212.082 266.976 212.72 268.551C213.358 270.126 214.441 271.482 215.837 272.454C217.233 273.425 218.882 273.969 220.583 274.021C222.284 274.072 223.963 273.628 225.415 272.743C226.868 271.858 228.031 270.57 228.763 269.036C229.495 267.503 229.765 265.789 229.539 264.105L235.734 212.06Z" fill="#FFB6B6"/>
<path d="M276.519 463.671L284.891 463.67L288.875 431.418H276.517L276.519 463.671Z" fill="#FFB6B6"/>
<path d="M273.683 459.546L286.919 458.757V464.421L299.502 473.1C300.124 473.528 300.592 474.144 300.838 474.857C301.084 475.57 301.096 476.343 300.871 477.064C300.646 477.784 300.197 478.413 299.589 478.86C298.98 479.307 298.245 479.548 297.489 479.548H281.732L279.016 473.947L277.955 479.548H272.014L273.683 459.546Z" fill="#2F2E41"/>
<path d="M228.106 463.671L236.48 463.67L240.462 431.418H228.105L228.106 463.671Z" fill="#FFB6B6"/>
<path d="M225.271 459.546L238.507 458.757V464.421L251.09 473.1C251.712 473.528 252.18 474.144 252.426 474.857C252.672 475.57 252.684 476.343 252.459 477.064C252.234 477.784 251.785 478.413 251.177 478.86C250.568 479.307 249.833 479.548 249.077 479.548H233.32L230.604 473.947L229.543 479.548H223.602L225.271 459.546Z" fill="#2F2E41"/>
<path d="M269.063 138.826L251.718 139.166L239.475 152.073L229.659 153.51C225.219 154.161 221.137 156.313 218.095 159.609C215.053 162.904 213.236 167.142 212.947 171.614L214.648 180.943H224.85L230.753 215.553C228.458 221.393 228.302 226.004 233.013 227.814L247.637 255.326L290.829 235.966C293.019 232.205 293.721 228.428 291.482 224.754L294.57 171.772H304.952C304.952 161.863 301.596 153.509 291.735 152.406C287.819 151.983 283.885 151.758 279.946 151.733L269.063 138.826Z" fill="#455444"/>
<path d="M290.829 235.966C290.829 235.966 248.657 243.439 233.013 227.815C233.013 227.815 231.424 230.508 229.031 234.973C228.343 236.258 227.014 237.128 226.211 238.683C225.481 240.097 223.605 241.836 222.81 243.439C222.17 244.729 223.196 246.415 222.531 247.809C214.519 264.591 205.159 288.264 207.165 303.896C208.46 313.977 211.132 337.434 213.947 362.628C214.167 364.596 212.386 367.125 212.607 369.109C212.815 370.98 215.026 372.306 215.235 374.181C215.373 375.426 213.829 376.696 213.967 377.94C214.119 379.304 215.952 380.642 216.103 382.001C219.959 416.788 223.49 449.266 223.49 449.266H243.216L246.937 375.089L243.896 348.051L251.038 293.367L260.901 345.334L262.169 374.58L272.592 450.625H290.829V377.009L292.189 373.185L290.829 368.28L292.189 362.995L290.829 357.24V235.966Z" fill="#2F2E41"/>
<path d="M274.387 128.781C271.7 132.346 267.878 134.89 263.55 135.995C259.221 137.1 254.645 136.701 250.575 134.862C246.505 133.023 243.183 129.854 241.157 125.878C239.131 121.902 238.521 117.355 239.428 112.986C240.335 108.617 242.704 104.688 246.146 101.844C249.589 98.9995 253.898 97.4111 258.365 97.3397C262.831 97.2683 267.189 98.7182 270.721 101.451C274.252 104.183 276.747 108.036 277.793 112.373C277.85 112.608 277.897 112.842 277.944 113.085C278.496 115.804 278.465 118.609 277.852 121.314C277.239 124.02 276.058 126.565 274.387 128.781Z" fill="#FFB6B6"/>
<path d="M270.287 117.578C269.87 115.488 268.815 113.577 267.267 112.11C267.42 114.113 267.142 116.126 266.451 118.013C261.28 118.47 256.086 117.443 251.48 115.051C248.011 112.701 243.597 112.905 238.454 115.051C238.454 112.553 238.946 110.08 239.903 107.772C240.86 105.464 242.263 103.367 244.032 101.601C245.8 99.8348 247.9 98.4337 250.211 97.478C252.522 96.5222 254.999 96.0304 257.5 96.0308H260.901C265.952 96.0317 270.795 98.0359 274.367 101.603C277.938 105.17 279.945 110.007 279.946 115.051C276.807 116.175 273.575 117.021 270.287 117.578Z" fill="#2F2E41"/>
<path d="M121.498 360C151.716 360 176.212 335.536 176.212 305.357C176.212 275.179 151.716 250.714 121.498 250.714C91.2795 250.714 66.783 275.179 66.783 305.357C66.783 335.536 91.2795 360 121.498 360Z" fill="#FFFFFF"/>
<path d="M470.169 109.286C500.387 109.286 524.883 84.8213 524.883 54.6429C524.883 24.4644 500.387 0 470.169 0C439.951 0 415.454 24.4644 415.454 54.6429C415.454 84.8213 439.951 109.286 470.169 109.286Z" fill="#FFFFFF"/>
<path d="M261.858 289.717H118.326C116.288 289.712 114.335 288.901 112.893 287.462C111.452 286.023 110.64 284.072 110.634 282.036V212.191C110.639 210.155 111.451 208.205 112.892 206.765C114.334 205.326 116.287 204.515 118.325 204.509H261.857C263.895 204.514 265.848 205.325 267.29 206.764C268.731 208.204 269.543 210.154 269.549 212.19V282.035C269.543 284.071 268.732 286.022 267.29 287.461C265.849 288.901 263.896 289.712 261.858 289.717Z" fill="white"/>
<path d="M261.858 289.717H118.326C116.288 289.712 114.335 288.901 112.893 287.462C111.452 286.023 110.64 284.072 110.634 282.036V212.191C110.639 210.155 111.451 208.205 112.892 206.765C114.334 205.326 116.287 204.515 118.325 204.509H261.857C263.895 204.514 265.848 205.325 267.29 206.764C268.731 208.204 269.543 210.154 269.549 212.19V282.035C269.543 284.071 268.732 286.022 267.29 287.461C265.849 288.901 263.896 289.712 261.858 289.717ZM118.326 206.652C116.856 206.656 115.448 207.241 114.409 208.28C113.369 209.318 112.784 210.724 112.78 212.192V282.035C112.784 283.503 113.37 284.91 114.409 285.948C115.449 286.986 116.857 287.571 118.327 287.575H261.856C263.326 287.571 264.734 286.986 265.774 285.947C266.813 284.909 267.399 283.502 267.403 282.034V212.191C267.399 210.723 266.813 209.317 265.773 208.279C264.734 207.241 263.325 206.656 261.856 206.652L118.326 206.652Z" fill="#3F3D56"/>
<path d="M197.785 279.395C169.477 279.395 139.96 279.125 128.947 278.95C127.498 278.92 126.118 278.326 125.102 277.294C124.086 276.262 123.514 274.874 123.508 273.427V215.611C123.509 215.092 123.715 214.595 124.081 214.228C124.448 213.862 124.945 213.654 125.464 213.653H254.714C255.233 213.653 255.731 213.859 256.098 214.225C256.466 214.591 256.673 215.087 256.675 215.605V254.833C256.651 261.236 254.114 267.375 249.61 271.932C245.106 276.489 238.993 279.102 232.582 279.21C222.318 279.343 210.164 279.395 197.785 279.395Z" fill="#455444"/>
<path d="M247.042 251.229H130.254C129.276 251.226 128.323 250.923 127.524 250.36C126.724 249.797 126.118 249.002 125.787 248.083L112.568 211.048C112.313 210.334 112.234 209.569 112.337 208.817C112.439 208.066 112.721 207.35 113.158 206.73C113.595 206.11 114.174 205.604 114.848 205.254C115.522 204.904 116.269 204.721 117.029 204.719L263.012 204.516C263.706 204.516 264.391 204.667 265.02 204.96C265.649 205.252 266.206 205.679 266.652 206.21C267.098 206.741 267.422 207.363 267.601 208.033C267.78 208.702 267.81 209.403 267.688 210.085L267.801 210.133L267.382 211.11L267.378 211.12L251.398 248.358C251.034 249.21 250.427 249.937 249.652 250.447C248.878 250.958 247.97 251.229 247.042 251.229ZM263.018 206.659L117.033 206.862C116.617 206.863 116.207 206.963 115.838 207.155C115.469 207.347 115.152 207.624 114.912 207.964C114.673 208.303 114.518 208.695 114.462 209.107C114.406 209.518 114.449 209.937 114.589 210.329L127.807 247.362C127.989 247.866 128.321 248.301 128.759 248.61C129.197 248.918 129.72 249.084 130.256 249.086H247.042C247.55 249.086 248.047 248.937 248.471 248.658C248.894 248.379 249.227 247.981 249.426 247.514L265.406 210.275L266.192 210.612L265.406 210.275C265.575 209.881 265.644 209.45 265.606 209.023C265.568 208.595 265.424 208.184 265.187 207.825C264.95 207.467 264.628 207.173 264.25 206.969C263.871 206.766 263.448 206.659 263.018 206.659Z" fill="#3F3D56"/>
<path d="M189.874 259.29C194.924 259.29 199.018 255.201 199.018 250.157C199.018 245.113 194.924 241.024 189.874 241.024C184.823 241.024 180.729 245.113 180.729 250.157C180.729 255.201 184.823 259.29 189.874 259.29Z" fill="white"/>
<path d="M535.326 180.005C540.377 180.005 544.471 175.916 544.471 170.872C544.471 165.828 540.377 161.739 535.326 161.739C530.276 161.739 526.182 165.828 526.182 170.872C526.182 175.916 530.276 180.005 535.326 180.005Z" fill="white"/>
<path d="M304.433 203.908L304.461 168.698L283.737 170.548L291.051 192.755L264.501 232.948C262.841 233.32 261.325 234.167 260.138 235.385C258.951 236.602 258.145 238.138 257.817 239.806C257.49 241.473 257.655 243.2 258.293 244.775C258.93 246.351 260.014 247.707 261.41 248.678C262.806 249.649 264.455 250.194 266.156 250.245C267.856 250.296 269.535 249.853 270.988 248.968C272.44 248.083 273.604 246.795 274.336 245.261C275.068 243.727 275.338 242.013 275.111 240.329L304.433 203.908Z" fill="#FFB6B6"/>
</g>
<defs>
<clipPath id="clip0_112_76">
<rect width="545" height="480" fill="white"/>
</clipPath>
</defs>
</svg>
