<svg width="346" height="255" viewBox="0 0 346 255" fill="none" xmlns="http://www.w3.org/2000/svg">
<g clip-path="url(#clip0_25_8)">
<path d="M164.355 255C239.962 255 301.254 249.624 301.254 242.993C301.254 236.362 239.962 230.987 164.355 230.987C88.7477 230.987 27.4561 236.362 27.4561 242.993C27.4561 249.624 88.7477 255 164.355 255Z" fill="#3F3D56"/>
<path d="M210.305 234.798H209.161C209.161 196.404 216.078 160.32 228.637 133.192C241.261 105.925 258.112 90.908 276.085 90.908V92.0515C239.814 92.0515 210.305 156.087 210.305 234.798Z" fill="#3F3D56"/>
<path d="M300.872 57.3655C300.872 66.3123 296.945 77.7579 292.101 77.7579C287.258 77.7579 283.331 66.3123 283.331 57.3655C283.331 48.4187 287.258 45.3588 292.101 45.3588C296.945 45.3588 300.872 48.4187 300.872 57.3655Z" fill="#E6E6E6"/>
<path d="M335.293 95.5319C326.44 96.8485 314.536 94.6506 313.823 89.8615C313.11 85.0724 323.859 79.5058 332.712 78.1892C341.565 76.8726 345.171 80.3046 345.884 85.0936C346.596 89.8827 344.146 94.2153 335.293 95.5319Z" fill="#E6E6E6"/>
<path d="M296.059 129.568C292.893 121.199 292.516 109.105 297.046 107.393C301.577 105.68 309.3 114.997 312.466 123.366C315.632 131.734 313.042 135.985 308.511 137.697C303.981 139.41 299.225 137.936 296.059 129.568Z" fill="#E6E6E6"/>
<path d="M295.915 102.534C302.022 102.534 306.973 97.5847 306.973 91.4798C306.973 85.375 302.022 80.426 295.915 80.426C289.807 80.426 284.856 85.375 284.856 91.4798C284.856 97.5847 289.807 102.534 295.915 102.534Z" fill="#656D4A"/>
<path d="M146.623 238.991H145.479C145.479 160.28 115.97 96.2444 79.6987 96.2444V95.1009C97.6722 95.1009 114.523 110.118 127.147 137.385C139.706 164.513 146.623 200.597 146.623 238.991Z" fill="#3F3D56"/>
<path d="M54.912 61.5584C54.912 70.5051 58.8388 81.9507 63.6827 81.9507C68.5266 81.9507 72.4533 70.5051 72.4533 61.5584C72.4533 52.6116 68.5266 49.5516 63.6827 49.5516C58.8388 49.5516 54.912 52.6116 54.912 61.5584Z" fill="#E6E6E6"/>
<path d="M20.4909 99.7247C29.3442 101.041 41.248 98.8434 41.9609 94.0543C42.6737 89.2653 31.9256 83.6986 23.0723 82.382C14.2191 81.0654 10.6132 84.4974 9.90039 89.2864C9.18756 94.0755 11.6377 98.4081 20.4909 99.7247Z" fill="#E6E6E6"/>
<path d="M59.7253 133.76C62.8914 125.392 63.2687 113.298 58.738 111.585C54.2072 109.873 46.484 119.19 43.318 127.558C40.152 135.927 42.742 140.177 47.2728 141.89C51.8036 143.603 56.5593 142.129 59.7253 133.76Z" fill="#E6E6E6"/>
<path d="M59.8693 106.726C65.9769 106.726 70.928 101.778 70.928 95.6726C70.928 89.5678 65.9769 84.6188 59.8693 84.6188C53.7618 84.6188 48.8107 89.5678 48.8107 95.6726C48.8107 101.778 53.7618 106.726 59.8693 106.726Z" fill="#656D4A"/>
<path d="M70.1653 236.704V214.596C70.1653 214.596 78.936 222.601 70.1653 238.61" fill="#3F3D56"/>
<path d="M70.4549 236.131L76.6702 214.914C76.6702 214.914 82.8371 225.06 69.9191 237.96" fill="#3F3D56"/>
<path d="M224.224 231.749V209.641C224.224 209.641 232.995 217.646 224.224 233.655" fill="#3F3D56"/>
<path d="M224.514 231.176L230.729 209.959C230.729 209.959 236.896 220.104 223.978 233.005" fill="#3F3D56"/>
<path d="M191.429 232.892V210.785C191.429 210.785 182.659 218.789 191.429 234.798" fill="#3F3D56"/>
<path d="M191.14 232.319L184.925 211.102C184.925 211.102 178.758 221.248 191.676 234.148" fill="#3F3D56"/>
<path d="M163.274 27.8251H163.274C167.617 27.8251 171.781 29.5494 174.852 32.6186C177.922 35.6878 179.647 39.8505 179.647 44.1909V60.2194H146.901V44.1909C146.901 42.0418 147.325 39.9136 148.148 37.928C148.971 35.9424 150.177 34.1383 151.697 32.6186C153.217 31.0989 155.022 29.8934 157.009 29.0709C158.995 28.2484 161.124 27.8251 163.274 27.8251Z" fill="#2F2E41"/>
<path d="M179.479 62.0752C173.473 66.3395 165.473 67.9842 156.86 68.824C162.794 64.0112 160.469 58.6955 156.86 53.3018L170.026 51.952C170.406 56.8485 174.205 59.8669 179.479 62.0752Z" fill="#FFB8B8"/>
<path d="M182.179 113.029L143.357 107.63C146.504 101.704 148.617 95.9784 147.875 90.8083C147.481 88.2246 147.514 85.5936 147.973 83.0206L148.22 81.7036C148.734 79.1694 149.714 76.7529 151.112 74.5769C152.671 72.0658 152.133 68.2926 151.459 64.4374L160.574 63.0876C165.603 65.6413 171.249 63.9398 177.115 60.7255L187.918 61.7378C187.186 80.9801 185.577 98.629 182.179 113.029Z" fill="#E6E6E6"/>
<path d="M214.588 228.77L207.161 230.12L159.223 146.773L140.318 230.12L133.567 229.783C133.419 182.549 131.294 130.688 142.722 110.546C147.009 100.376 153.569 90.6376 151.121 80.6344C160.737 83.4355 170.417 83.2353 180.154 80.297C179.697 92.2998 180.13 103.546 181.842 113.704L214.588 228.77Z" fill="#656D4A"/>
<path d="M212.473 251.379C210.851 251.379 209.275 250.845 207.989 249.859C206.702 248.873 205.776 247.491 205.354 245.926L204.696 243.482C204.54 242.903 204.493 242.3 204.558 241.704L205.81 230.12C208.199 227.16 211.673 226.446 216.613 228.771L219.666 242.401C219.907 243.479 219.903 244.597 219.654 245.673C219.405 246.749 218.917 247.755 218.226 248.617C217.536 249.479 216.66 250.174 215.664 250.653C214.668 251.131 213.577 251.379 212.473 251.379Z" fill="#2F2E41"/>
<path d="M137.866 251.379C136.244 251.379 134.668 250.845 133.382 249.859C132.095 248.873 131.169 247.491 130.748 245.926L130.089 243.482C129.933 242.903 129.886 242.3 129.951 241.704L131.203 230.12C133.592 227.16 137.066 226.446 142.006 228.771L145.059 242.401C145.301 243.479 145.297 244.597 145.047 245.673C144.798 246.749 144.31 247.755 143.619 248.617C142.929 249.479 142.053 250.174 141.057 250.653C140.061 251.131 138.971 251.379 137.866 251.379Z" fill="#2F2E41"/>
<path d="M161.586 57.3511C167.739 57.3511 172.727 52.3656 172.727 46.2156C172.727 40.0656 167.739 35.0801 161.586 35.0801C155.434 35.0801 150.446 40.0656 150.446 46.2156C150.446 52.3656 155.434 57.3511 161.586 57.3511Z" fill="#FFB8B8"/>
<path d="M152.978 83.841C153.537 83.841 153.991 83.3875 153.991 82.8282C153.991 82.2689 153.537 81.8154 152.978 81.8154C152.419 81.8154 151.965 82.2689 151.965 82.8282C151.965 83.3875 152.419 83.841 152.978 83.841Z" fill="#E6E6E6"/>
<path d="M178.635 83.841C179.194 83.841 179.647 83.3875 179.647 82.8282C179.647 82.2689 179.194 81.8154 178.635 81.8154C178.075 81.8154 177.622 82.2689 177.622 82.8282C177.622 83.3875 178.075 83.841 178.635 83.841Z" fill="#E6E6E6"/>
<path d="M168.844 44.697L151.29 44.3864V32.8866H172.558L168.844 44.697Z" fill="#2F2E41"/>
<path d="M175.934 59.8819H168.169C171.039 53.0286 170.786 45.7994 168.169 38.2858H175.934V59.8819Z" fill="#2F2E41"/>
<path d="M150.108 126.351L154.708 131.741C155.299 132.434 156.046 132.975 156.888 133.321C157.73 133.667 158.643 133.807 159.55 133.73C160.457 133.653 161.333 133.361 162.104 132.877C162.876 132.394 163.521 131.734 163.986 130.952C164.403 130.252 164.665 129.47 164.755 128.66C164.845 127.85 164.762 127.03 164.509 126.255C164.257 125.48 163.842 124.768 163.292 124.166C162.742 123.565 162.069 123.087 161.32 122.766L153.147 119.265L143.357 105.43L148.758 81.4717L139.305 78.4347L133.904 108.804L150.108 126.351Z" fill="#FFB8B8"/>
<path d="M137.955 79.7844C140.074 79.7214 142.183 80.0938 144.152 80.8785C146.121 81.6632 147.908 82.8434 149.403 84.3462C153.31 78.4228 153.876 71.5081 152.779 64.0998L148.695 64.052C147.03 64.1136 145.425 64.6844 144.095 65.6873C142.765 66.6902 141.775 68.0769 141.258 69.6601L137.955 79.7844Z" fill="#E6E6E6"/>
<path d="M178.466 81.9842H178.838L181.079 61.1782C181.085 61.1211 181.079 61.0634 181.062 61.0088C181.044 60.9541 181.015 60.9038 180.977 60.8611C180.938 60.8184 180.891 60.7843 180.839 60.7609C180.786 60.7375 180.73 60.7255 180.672 60.7255H178.875C178.767 60.7256 178.662 60.7687 178.586 60.8455C178.509 60.9222 178.466 61.0262 178.466 61.1347V81.9842Z" fill="#656D4A"/>
<path d="M152.471 82.9965H152.846L155.088 63.952C155.093 63.907 155.089 63.8614 155.075 63.8182C155.062 63.775 155.039 63.7352 155.009 63.7013C154.979 63.6675 154.942 63.6404 154.901 63.6219C154.859 63.6033 154.815 63.5938 154.769 63.5938H152.793C152.707 63.5939 152.626 63.6277 152.566 63.6879C152.505 63.748 152.472 63.8296 152.471 63.9147V82.9965Z" fill="#656D4A"/>
<path d="M219.261 33.5429L219.366 26.4591C219.38 25.5492 219.176 24.6492 218.772 23.8337C218.368 23.0182 217.776 22.3108 217.043 21.77C216.311 21.2293 215.46 20.8709 214.562 20.7245C213.663 20.5782 212.743 20.6481 211.877 20.9285C211.101 21.1796 210.388 21.5934 209.785 22.1423C209.182 22.6911 208.704 23.3623 208.381 24.111C208.059 24.8596 207.9 25.6684 207.916 26.4833C207.932 27.2982 208.121 28.1003 208.472 28.836L212.298 36.8598L210.512 53.7117L185.709 72.0404L190.256 81.1312L219.84 57.4155L219.261 33.5429Z" fill="#FFB8B8"/>
<path d="M192.573 66.1324C193.365 67.502 192.984 72.9933 192.383 75.4709C192.383 75.4709 191.358 79.3609 190.285 81.1884L180.764 62.818L184.707 61.755C186.334 61.4001 188.032 61.5531 189.57 62.1932C191.108 62.8333 191.782 64.7628 192.573 66.1324Z" fill="#E6E6E6"/>
</g>
<defs>
<clipPath id="clip0_25_8">
<rect width="346" height="255" fill="white"/>
</clipPath>
</defs>
</svg>
